<svg version="1.0" xmlns="http://www.w3.org/2000/svg"
 width="256.000000pt" height="256.000000pt" viewBox="0 0 256.000000 256.000000"
 preserveAspectRatio="xMidYMid meet">

<g transform="translate(0.000000,256.000000) scale(0.100000,-0.100000)"
fill="#000000" stroke="none">
<path d="M0 1280 l0 -1280 1280 0 1280 0 0 1280 0 1280 -1280 0 -1280 0 0
-1280z m570 294 c71 -100 75 -104 90 -85 8 11 44 58 80 105 l65 86 93 0 92 0
0 -345 0 -345 -90 0 -90 0 -2 206 -3 206 -75 -90 c-41 -50 -78 -91 -82 -91 -4
-1 -40 40 -80 90 l-73 91 -3 -206 -2 -206 -90 0 -90 0 0 345 0 345 93 0 92 -1
75 -105z m1120 51 c9 -27 20 -60 24 -72 l7 -23 -136 0 c-184 0 -229 -22 -260
-124 l-14 -46 89 0 90 0 0 75 0 75 100 0 100 0 0 -260 0 -260 -100 0 -100 0 0
115 0 115 -109 0 -109 0 14 -61 c8 -33 25 -84 39 -113 14 -29 25 -55 25 -58 0
-5 -136 -98 -144 -98 -7 0 -63 140 -88 220 -19 61 -23 97 -23 195 0 118 1 121
35 184 38 71 103 127 185 159 71 28 84 30 229 28 l129 -1 17 -50z m320 -215
l0 -270 125 0 c69 0 125 -3 125 -7 -1 -5 -9 -37 -19 -73 l-18 -65 -197 -3
-196 -2 0 345 0 345 90 0 90 0 0 -270z"/>
</g>
</svg>
